<mxfile host="app.diagrams.net" modified="2024-02-25T16:27:06.395Z" agent="Mozilla/5.0 (Windows NT 10.0; Win64; x64) AppleWebKit/537.36 (KHTML, like Gecko) Chrome/121.0.0.0 Safari/537.36" etag="Bo_UJTR1iRE0TigujJbG" version="23.1.6" type="device">
  <diagram name="Pagina-1" id="qxMywMA8TPre7az3SqLo">
    <mxGraphModel dx="1947" dy="468" grid="1" gridSize="10" guides="1" tooltips="1" connect="1" arrows="1" fold="1" page="1" pageScale="1" pageWidth="827" pageHeight="1169" math="0" shadow="0">
      <root>
        <mxCell id="0" />
        <mxCell id="1" parent="0" />
        <mxCell id="KEmaoDHBCf6uQCs7UtCY-1" value="tp:Topic" style="graphMlID=n4;shape=rect;rounded=1;arcsize=30;fillColor=#ffff00;strokeColor=#000000;strokeWidth=1.0" parent="1" vertex="1">
          <mxGeometry x="300" y="508" width="81.96822102864604" height="44" as="geometry" />
        </mxCell>
        <mxCell id="KEmaoDHBCf6uQCs7UtCY-2" value="ec:InformationObject" style="graphMlID=n4;shape=rect;rounded=1;arcsize=30;fillColor=#ffff00;strokeColor=#000000;strokeWidth=1.0" parent="1" vertex="1">
          <mxGeometry x="100.98000000000002" y="510" width="120" height="40" as="geometry" />
        </mxCell>
        <mxCell id="KEmaoDHBCf6uQCs7UtCY-5" value="fs:Information" style="graphMlID=n4;shape=rect;rounded=1;arcsize=30;fillColor=#ffff00;strokeColor=#000000;strokeWidth=1.0" parent="1" vertex="1">
          <mxGeometry x="93.99000000000001" y="354" width="133.98" height="40" as="geometry" />
        </mxCell>
        <mxCell id="KEmaoDHBCf6uQCs7UtCY-6" value="acf:SocialAgent" style="graphMlID=n4;shape=rect;rounded=1;arcsize=30;fillColor=#ffff00;strokeColor=#000000;strokeWidth=1.0" parent="1" vertex="1">
          <mxGeometry x="414" y="270" width="100" height="44" as="geometry" />
        </mxCell>
        <mxCell id="KEmaoDHBCf6uQCs7UtCY-7" value="cbo:Source" style="graphMlID=n4;shape=rect;rounded=1;arcsize=30;fillColor=#ffff00;strokeColor=#000000;strokeWidth=1.0" parent="1" vertex="1">
          <mxGeometry x="120" y="190" width="81.96822102864604" height="44" as="geometry" />
        </mxCell>
        <mxCell id="KEmaoDHBCf6uQCs7UtCY-10" value="" style="graphMlID=e0;rounded=0;endArrow=block;strokeColor=#000080;strokeWidth=1.0;startArrow=oval;startFill=1;endFill=1;exitX=0.5;exitY=1;exitDx=0;exitDy=0;entryX=0.5;entryY=0;entryDx=0;entryDy=0;" parent="1" source="KEmaoDHBCf6uQCs7UtCY-5" target="KEmaoDHBCf6uQCs7UtCY-2" edge="1">
          <mxGeometry relative="1" as="geometry">
            <mxPoint x="340" y="390.08183758898736" as="sourcePoint" />
            <mxPoint x="491" y="390" as="targetPoint" />
          </mxGeometry>
        </mxCell>
        <mxCell id="KEmaoDHBCf6uQCs7UtCY-11" value="&lt;span style=&quot;color: rgb(0 , 0 , 128) ; font-family: &amp;quot;dialog&amp;quot; ; font-size: 16px ; background-color: rgb(248 , 249 , 250)&quot;&gt;rdfs:subClassOf&lt;/span&gt;" style="text;html=1;align=center;verticalAlign=middle;resizable=0;points=[];labelBackgroundColor=#ffffff;" parent="KEmaoDHBCf6uQCs7UtCY-10" vertex="1" connectable="0">
          <mxGeometry x="-0.0174" y="2" relative="1" as="geometry">
            <mxPoint x="-2" y="24" as="offset" />
          </mxGeometry>
        </mxCell>
        <mxCell id="KEmaoDHBCf6uQCs7UtCY-14" value="" style="graphMlID=e0;rounded=0;endArrow=block;strokeColor=#000080;strokeWidth=1.0;startArrow=oval;startFill=1;endFill=1;exitX=0.5;exitY=1;exitDx=0;exitDy=0;entryX=0.5;entryY=0;entryDx=0;entryDy=0;" parent="1" source="KEmaoDHBCf6uQCs7UtCY-5" target="KEmaoDHBCf6uQCs7UtCY-1" edge="1">
          <mxGeometry relative="1" as="geometry">
            <mxPoint x="340" y="270.08183758898736" as="sourcePoint" />
            <mxPoint x="491" y="270" as="targetPoint" />
          </mxGeometry>
        </mxCell>
        <mxCell id="KEmaoDHBCf6uQCs7UtCY-15" value="&lt;span style=&quot;color: rgb(0 , 0 , 128) ; font-family: &amp;quot;dialog&amp;quot; ; font-size: 16px ; background-color: rgb(248 , 249 , 250)&quot;&gt;tp:hasTopic&lt;/span&gt;" style="text;html=1;align=center;verticalAlign=middle;resizable=0;points=[];labelBackgroundColor=#ffffff;" parent="KEmaoDHBCf6uQCs7UtCY-14" vertex="1" connectable="0">
          <mxGeometry x="-0.0174" y="2" relative="1" as="geometry">
            <mxPoint as="offset" />
          </mxGeometry>
        </mxCell>
        <mxCell id="KEmaoDHBCf6uQCs7UtCY-18" value="" style="graphMlID=e0;rounded=0;endArrow=block;strokeColor=#000080;strokeWidth=1.0;startArrow=oval;startFill=1;endFill=1;exitX=0.5;exitY=1;exitDx=0;exitDy=0;entryX=1;entryY=0.5;entryDx=0;entryDy=0;" parent="1" source="KEmaoDHBCf6uQCs7UtCY-6" target="KEmaoDHBCf6uQCs7UtCY-5" edge="1">
          <mxGeometry relative="1" as="geometry">
            <mxPoint x="340" y="270.08183758898736" as="sourcePoint" />
            <mxPoint x="420" y="320" as="targetPoint" />
            <Array as="points">
              <mxPoint x="350" y="374" />
            </Array>
          </mxGeometry>
        </mxCell>
        <mxCell id="KEmaoDHBCf6uQCs7UtCY-19" value="&lt;span style=&quot;color: rgb(0 , 0 , 128) ; font-family: &amp;quot;dialog&amp;quot; ; font-size: 16px ; background-color: rgb(248 , 249 , 250)&quot;&gt;ec:hasInformationObject&lt;/span&gt;" style="text;html=1;align=center;verticalAlign=middle;resizable=0;points=[];labelBackgroundColor=#ffffff;" parent="KEmaoDHBCf6uQCs7UtCY-18" vertex="1" connectable="0">
          <mxGeometry x="-0.0174" y="2" relative="1" as="geometry">
            <mxPoint as="offset" />
          </mxGeometry>
        </mxCell>
        <mxCell id="KEmaoDHBCf6uQCs7UtCY-28" value="" style="graphMlID=e0;rounded=0;endArrow=block;strokeColor=#000080;strokeWidth=1.0;startArrow=oval;startFill=1;endFill=1;exitX=0.5;exitY=0;exitDx=0;exitDy=0;entryX=0.5;entryY=1;entryDx=0;entryDy=0;" parent="1" source="KEmaoDHBCf6uQCs7UtCY-5" target="KEmaoDHBCf6uQCs7UtCY-7" edge="1">
          <mxGeometry relative="1" as="geometry">
            <mxPoint x="201" y="360" as="sourcePoint" />
            <mxPoint x="191" y="254" as="targetPoint" />
            <Array as="points">
              <mxPoint x="160" y="350" />
            </Array>
          </mxGeometry>
        </mxCell>
        <mxCell id="KEmaoDHBCf6uQCs7UtCY-29" value="&lt;span style=&quot;color: rgb(0 , 0 , 128) ; font-family: &amp;quot;dialog&amp;quot; ; font-size: 16px ; background-color: rgb(248 , 249 , 250)&quot;&gt;cbo:originatesFrom&lt;/span&gt;" style="text;html=1;align=center;verticalAlign=middle;resizable=0;points=[];labelBackgroundColor=#ffffff;" parent="KEmaoDHBCf6uQCs7UtCY-28" vertex="1" connectable="0">
          <mxGeometry x="-0.0174" y="2" relative="1" as="geometry">
            <mxPoint as="offset" />
          </mxGeometry>
        </mxCell>
        <mxCell id="KEmaoDHBCf6uQCs7UtCY-40" value="" style="graphMlID=e0;rounded=0;endArrow=block;strokeColor=#000080;strokeWidth=1.0;startArrow=oval;startFill=1;endFill=1;exitX=0.5;exitY=0;exitDx=0;exitDy=0;entryX=0;entryY=0.5;entryDx=0;entryDy=0;" parent="1" source="KEmaoDHBCf6uQCs7UtCY-5" target="KEmaoDHBCf6uQCs7UtCY-6" edge="1">
          <mxGeometry relative="1" as="geometry">
            <mxPoint x="490" y="280.08183758898736" as="sourcePoint" />
            <mxPoint x="300" y="320" as="targetPoint" />
            <Array as="points" />
          </mxGeometry>
        </mxCell>
        <mxCell id="KEmaoDHBCf6uQCs7UtCY-41" value="&lt;span style=&quot;color: rgb(0 , 0 , 128) ; font-family: &amp;quot;dialog&amp;quot; ; font-size: 16px ; background-color: rgb(248 , 249 , 250)&quot;&gt;cbo:keepInfluencing&lt;/span&gt;" style="text;html=1;align=center;verticalAlign=middle;resizable=0;points=[];labelBackgroundColor=#ffffff;" parent="KEmaoDHBCf6uQCs7UtCY-40" vertex="1" connectable="0">
          <mxGeometry x="-0.0174" y="2" relative="1" as="geometry">
            <mxPoint as="offset" />
          </mxGeometry>
        </mxCell>
        <mxCell id="KEmaoDHBCf6uQCs7UtCY-45" value="" style="graphMlID=e0;rounded=0;endArrow=block;strokeColor=#000080;strokeWidth=1.0;startArrow=oval;startFill=1;endFill=1;exitX=0;exitY=0.5;exitDx=0;exitDy=0;entryX=1;entryY=0.5;entryDx=0;entryDy=0;" parent="1" source="KEmaoDHBCf6uQCs7UtCY-6" target="KEmaoDHBCf6uQCs7UtCY-7" edge="1">
          <mxGeometry relative="1" as="geometry">
            <mxPoint x="510" y="80.08183758898736" as="sourcePoint" />
            <mxPoint x="661" y="80" as="targetPoint" />
          </mxGeometry>
        </mxCell>
        <mxCell id="KEmaoDHBCf6uQCs7UtCY-46" value="&lt;span style=&quot;color: rgb(0 , 0 , 128) ; font-family: &amp;quot;dialog&amp;quot; ; font-size: 16px ; background-color: rgb(248 , 249 , 250)&quot;&gt;fs:Research&lt;/span&gt;" style="text;html=1;align=center;verticalAlign=middle;resizable=0;points=[];labelBackgroundColor=#ffffff;" parent="KEmaoDHBCf6uQCs7UtCY-45" vertex="1" connectable="0">
          <mxGeometry x="-0.0174" y="2" relative="1" as="geometry">
            <mxPoint as="offset" />
          </mxGeometry>
        </mxCell>
        <mxCell id="bjarH_RWbyKItV6CKXPP-2" value="" style="graphMlID=e2;rounded=0;endArrow=block;strokeColor=#008000;strokeWidth=1.0;startArrow=oval;startFill=0;endFill=0;exitX=0.5;exitY=0;exitDx=0;exitDy=0;entryX=0.5;entryY=1;entryDx=0;entryDy=0;" parent="1" source="KEmaoDHBCf6uQCs7UtCY-7" target="bjarH_RWbyKItV6CKXPP-4" edge="1">
          <mxGeometry relative="1" as="geometry">
            <mxPoint x="370" y="-80" as="sourcePoint" />
            <mxPoint x="160" y="-250" as="targetPoint" />
          </mxGeometry>
        </mxCell>
        <mxCell id="bjarH_RWbyKItV6CKXPP-3" value="&lt;span style=&quot;color: rgb(0 , 128 , 0) ; font-family: &amp;quot;dialog&amp;quot; ; font-size: 16px ; background-color: rgb(248 , 249 , 250)&quot;&gt;cbo:isCorrect&lt;/span&gt;" style="text;html=1;align=center;verticalAlign=middle;resizable=0;points=[];labelBackgroundColor=#ffffff;" parent="bjarH_RWbyKItV6CKXPP-2" vertex="1" connectable="0">
          <mxGeometry x="-0.0896" y="3" relative="1" as="geometry">
            <mxPoint as="offset" />
          </mxGeometry>
        </mxCell>
        <mxCell id="bjarH_RWbyKItV6CKXPP-4" value="xsd:boolean" style="graphMlID=n6;shape=parallelogram;fillColor=#ccffcc;strokeColor=#000000;strokeWidth=1.0" parent="1" vertex="1">
          <mxGeometry x="97.94" y="100" width="126.0949682107173" height="43" as="geometry" />
        </mxCell>
        <mxCell id="bjarH_RWbyKItV6CKXPP-7" value="" style="graphMlID=e2;rounded=0;endArrow=block;strokeColor=#008000;strokeWidth=1.0;startArrow=oval;startFill=0;endFill=0;exitX=0;exitY=0.5;exitDx=0;exitDy=0;" parent="1" source="KEmaoDHBCf6uQCs7UtCY-5" target="bjarH_RWbyKItV6CKXPP-9" edge="1">
          <mxGeometry relative="1" as="geometry">
            <mxPoint y="360" as="sourcePoint" />
            <mxPoint x="-20" y="374" as="targetPoint" />
          </mxGeometry>
        </mxCell>
        <mxCell id="bjarH_RWbyKItV6CKXPP-8" value="&lt;span style=&quot;color: rgb(0 , 128 , 0) ; font-family: &amp;quot;dialog&amp;quot; ; font-size: 16px ; background-color: rgb(248 , 249 , 250)&quot;&gt;cbo:isCorrect&lt;/span&gt;" style="text;html=1;align=center;verticalAlign=middle;resizable=0;points=[];labelBackgroundColor=#ffffff;" parent="bjarH_RWbyKItV6CKXPP-7" vertex="1" connectable="0">
          <mxGeometry x="-0.0896" y="3" relative="1" as="geometry">
            <mxPoint as="offset" />
          </mxGeometry>
        </mxCell>
        <mxCell id="bjarH_RWbyKItV6CKXPP-9" value="xsd:boolean" style="graphMlID=n6;shape=parallelogram;fillColor=#ccffcc;strokeColor=#000000;strokeWidth=1.0" parent="1" vertex="1">
          <mxGeometry x="-159.99748410535864" y="352.5" width="126.0949682107173" height="43" as="geometry" />
        </mxCell>
        <mxCell id="bjarH_RWbyKItV6CKXPP-10" value="" style="graphMlID=e2;rounded=0;endArrow=block;strokeColor=#008000;strokeWidth=1.0;startArrow=oval;startFill=0;endFill=0;exitX=1;exitY=0.5;exitDx=0;exitDy=0;" parent="1" source="KEmaoDHBCf6uQCs7UtCY-6" target="bjarH_RWbyKItV6CKXPP-12" edge="1">
          <mxGeometry relative="1" as="geometry">
            <mxPoint x="190" y="320" as="sourcePoint" />
            <mxPoint x="640" y="292" as="targetPoint" />
          </mxGeometry>
        </mxCell>
        <mxCell id="bjarH_RWbyKItV6CKXPP-11" value="&lt;span style=&quot;color: rgb(0 , 128 , 0) ; font-family: &amp;quot;dialog&amp;quot; ; font-size: 16px ; background-color: rgb(248 , 249 , 250)&quot;&gt;cbo:isInfluenced&lt;/span&gt;" style="text;html=1;align=center;verticalAlign=middle;resizable=0;points=[];labelBackgroundColor=#ffffff;" parent="bjarH_RWbyKItV6CKXPP-10" vertex="1" connectable="0">
          <mxGeometry x="-0.0896" y="3" relative="1" as="geometry">
            <mxPoint as="offset" />
          </mxGeometry>
        </mxCell>
        <mxCell id="bjarH_RWbyKItV6CKXPP-12" value="xsd:boolean" style="graphMlID=n6;shape=parallelogram;fillColor=#ccffcc;strokeColor=#000000;strokeWidth=1.0" parent="1" vertex="1">
          <mxGeometry x="660.0025158946413" y="270.5" width="126.0949682107173" height="43" as="geometry" />
        </mxCell>
        <mxCell id="bjarH_RWbyKItV6CKXPP-13" value="Prefixes" style="graphMlID=n0;shape=swimlane;startSize=20;fillColor=#b7b69e;strokeColor=#000000;strokeWidth=1.0;align=right;spacingRight=10;fontStyle=1" parent="1" vertex="1">
          <mxGeometry x="381.97" y="50" width="806.42" height="150" as="geometry" />
        </mxCell>
        <mxCell id="bjarH_RWbyKItV6CKXPP-14" value="&lt;b&gt;cbo:&lt;br&gt;owl:&lt;br&gt;rdfs:&lt;br&gt;acf:&lt;br&gt;ec:&lt;br&gt;fs:&lt;br&gt;tp:&lt;br&gt;&lt;/b&gt;" style="text;html=1;align=center;verticalAlign=middle;resizable=0;points=[];autosize=1;fontFamily=Courier New;" parent="bjarH_RWbyKItV6CKXPP-13" vertex="1">
          <mxGeometry x="2.026452437349733" y="29.999537210490427" width="60" height="110" as="geometry" />
        </mxCell>
        <mxCell id="bjarH_RWbyKItV6CKXPP-15" value="http://www.semanticweb.org/mguen/ontologies/2024/1/CognitiveBiasOntology/continued_influence_effect&lt;br&gt;http://www.w3.org/2002/07/owl#&lt;br&gt;http://www.w3.org/2000/01/rdf-schema#&lt;br&gt;http://www.ontologydesignpatterns.org/ont/dul/DUL.owl&lt;br&gt;http://krisnadhi.github.io/onto/event.owl&lt;br&gt;http://etna.istc.cnr.it/framester2/data/framestercore/&lt;br&gt;http://ontologydesignpatterns.org/cp/owl/topic.owl" style="text;html=1;align=left;verticalAlign=middle;resizable=0;points=[];autosize=1;fontFamily=Courier New;" parent="bjarH_RWbyKItV6CKXPP-13" vertex="1">
          <mxGeometry x="66.41645243734973" y="29.999537210490427" width="740" height="110" as="geometry" />
        </mxCell>
      </root>
    </mxGraphModel>
  </diagram>
</mxfile>
